<?xml version="1.0" standalone="no"?>
<!DOCTYPE svg PUBLIC "-//W3C//DTD SVG 1.0//EN" "http://www.w3.org/TR/2001/REC-SVG-20010904/DTD/svg10.dtd">
<svg xmlns="http://www.w3.org/2000/svg" xmlns:xlink="http://www.w3.org/1999/xlink" id="body_1" width="133" height="100">

<g transform="matrix(0.44731444 0 0 0.44731444 -0 9.424107)">
    <path d="M262 0C 258.67 36.33 222.67 31.77 222.67 31.77L222.67 31.77L222.67 0L186.58 0L186.58 31.77L108.67 31.77L108.67 0L73.33 0L73.33 31.67C 37.83 33.83 35.5 0.6700001 35.5 0.6700001L35.5 0.6700001L0 0.6700001L0 2.13C -0.0023117065 37.081226 27.821918 65.68132 62.76 66.64L62.76 66.64L73 66.92L73 112.17C 72.99734 130.53706 80.29245 148.1526 93.27992 161.14008C 106.267395 174.12755 123.882935 181.42265 142.25 181.42L142.25 181.42L153.5 181.42C 191.69786 181.30469 222.63469 150.36786 222.75 112.17L222.75 112.17L222.75 66.67L233.42 66.67C 268.71652 66.66999 297.33 38.056503 297.33 2.7599983L297.33 2.7599983L297.33 -1.66893E-06L262 0zM186.75 108.29C 186.97517 122.32733 179.61528 135.39578 167.49475 142.48026C 155.3742 149.56473 140.3758 149.56473 128.25525 142.48026C 116.13471 135.39578 108.774826 122.32733 109 108.29L109 108.29L109 65.92L186.75 65.92z" stroke="none" fill="#2660AD" fill-rule="nonzero" />
</g>
</svg>