<?xml version="1.0" standalone="no"?>
<!DOCTYPE svg PUBLIC "-//W3C//DTD SVG 1.0//EN" "http://www.w3.org/TR/2001/REC-SVG-20010904/DTD/svg10.dtd">
<svg xmlns="http://www.w3.org/2000/svg" xmlns:xlink="http://www.w3.org/1999/xlink" id="body_1" width="133" height="100">

<g transform="matrix(0.17855868 0 0 0.17855868 16.503574 -0)">
    <path d="M219.42 275.6L214.56 270.72C 212.88902 269.03815 210.36818 268.5311 208.1769 269.4361C 205.9856 270.3411 204.55719 272.4792 204.56 274.85L204.56 274.85L204.56 344.57C 204.56264 346.12326 205.18289 347.6117 206.28403 348.70718C 207.38515 349.80267 208.87674 350.4153 210.43 350.41L210.43 350.41L280.16 350.41C 282.53867 350.4287 284.69016 349.0004 285.5963 346.80103C 286.50244 344.60162 285.9815 342.0723 284.28 340.41C 282.0108 338.1281 282.0108 334.4419 284.28 332.16L284.28 332.16L358.46 257.78C 359.5555 256.68475 360.171 255.1991 360.171 253.65C 360.171 252.10089 359.5555 250.61525 358.46 249.52L358.46 249.52L351.69998 242.79001C 350.0077 241.1227 349.49405 238.59642 350.4009 236.40065C 351.30777 234.20488 353.45435 232.77728 355.83 232.79001L355.83 232.79001L425.52997 232.79001C 428.75858 232.79 431.37894 235.40144 431.38995 238.63L431.38995 238.63L431.38995 308.35C 431.38297 310.71606 429.9538 312.8458 427.76688 313.749C 425.58 314.6522 423.06448 314.1516 421.38995 312.48L421.38995 312.48L416.67996 307.79C 415.60458 306.66522 414.11612 306.029 412.55997 306.029C 411.0038 306.029 409.51535 306.66522 408.43997 307.79L408.43997 307.79L283.43997 432.79C 281.1468 435.05066 277.4632 435.05066 275.16998 432.79L275.16998 432.79L122.16998 279.79C 121.06586 278.69528 120.44477 277.20486 120.44477 275.65002C 120.44477 274.09518 121.06586 272.60477 122.16998 271.51L122.16998 271.51L334 59.770004C 336.26065 57.47681 336.26065 53.793194 334 51.500004L334 51.500004L284.14 1.7000046C 281.85126 -0.57148886 278.15875 -0.57148886 275.87003 1.7000046L275.87003 1.7000046L1.7000122 275.90002C -0.5714812 278.18878 -0.5714812 281.8813 1.7000122 284.17L1.7000122 284.17L275.87003 558.34C 278.15875 560.6115 281.85126 560.6115 284.14 558.34L284.14 558.34L558.30005 284.17C 560.5692 281.88812 560.5692 278.2019 558.30005 275.92L558.30005 275.92L397.00006 114.62001C 394.71475 112.34966 391.02536 112.34966 388.74005 114.62001L388.74005 114.62001L227.74005 275.62C 226.64532 276.72412 225.15489 277.34518 223.60005 277.34518C 222.04521 277.34518 220.55478 276.72412 219.46005 275.62L219.46005 275.62L219.42 275.6z" stroke="none" fill="#DE5959" fill-rule="nonzero" />
</g>
</svg>